<svg width="262" height="80" viewBox="0 0 262 80" xmlns="http://www.w3.org/2000/svg" role="img" aria-label="校园外卖 Logo">
  <defs>
    <linearGradient id="campus-delivery-gradient" x1="8" y1="8" x2="72" y2="72" gradientUnits="userSpaceOnUse">
      <stop offset="0" stop-color="#FFB347"/>
      <stop offset="1" stop-color="#FF6A00"/>
    </linearGradient>
    <style>
      .brand-text {
        fill: #1f2329;
        font-family: "Microsoft YaHei UI", "Microsoft YaHei", "PingFang SC", "Noto Sans SC", sans-serif;
        font-size: 44px;
        font-weight: 700;
        letter-spacing: 1px;
      }
    </style>
  </defs>

  <!-- Editable vector template style: edit brand text/color here -->
  <g id="icon">
    <circle cx="40" cy="40" r="34" fill="url(#campus-delivery-gradient)"/>
    <g fill="none" stroke="#FFFFFF" stroke-linecap="round" stroke-linejoin="round">
      <path d="M24 46h30c3 0 5-2 5-5v-1c0-3-2-5-5-5H28c-2 0-4 2-4 4v7z" stroke-width="3"/>
      <path d="M30 35c1-6 6-10 12-10s11 4 12 10" stroke-width="3"/>
      <circle cx="30" cy="49" r="3.2" fill="#FFFFFF" stroke-width="0"/>
      <circle cx="52" cy="49" r="3.2" fill="#FFFFFF" stroke-width="0"/>
      <path d="M26 55h30" stroke-width="3"/>
      <path d="M19 30h7" stroke-width="3"/>
      <path d="M17 37h6" stroke-width="3"/>
    </g>
  </g>

  <g id="wordmark">
    <!-- Replace this text content to customize brand name -->
    <text id="brand-name" class="brand-text" x="88" y="55">校园外卖</text>
  </g>
</svg>
